<?xml version="1.0" encoding="utf-8"?>
<!-- Generator: Adobe Illustrator 24.3.0, SVG Export Plug-In . SVG Version: 6.00 Build 0)  -->
<svg version="1.1" id="Layer_1" xmlns="http://www.w3.org/2000/svg" xmlns:xlink="http://www.w3.org/1999/xlink" x="0px" y="0px"
	 viewBox="0 0 330.8 248.1" style="enable-background:new 0 0 330.8 248.1;" xml:space="preserve">
<path d="M52.8,92.6c-10.8,0-20.6,4.3-27.9,11.4V43.8h-15v38.9v35.7v33.7v5.2v19.2h15v-9.1c7.3,7.1,17.2,11.4,27.9,11.4
	c22.8,0,41.2-19.3,41.2-43.1S75.6,92.6,52.8,92.6z M51.7,164.2c-15.4,0-27.8-12.8-27.8-28.6c0-15.8,12.5-28.6,27.8-28.6
	s27.8,12.8,27.8,28.6C79.5,151.4,67,164.2,51.7,164.2z"/>
<path d="M323.8,197.4l-7.1-12.3l-12.9,7.5V162v-6.3v-35.7v-1.4V95.4h-15v8c-7.3-6.7-16.9-10.8-27.4-10.8
	c-22.8,0-41.2,19.3-41.2,43.1s18.5,43.1,41.2,43.1c10.5,0,20.1-4.1,27.4-10.8V209h15v0l0,0L323.8,197.4z M262.5,164.2
	c-15.4,0-27.8-12.8-27.8-28.6c0-15.8,12.5-28.6,27.8-28.6s27.8,12.8,27.8,28.6C290.3,151.4,277.8,164.2,262.5,164.2z"/>
<g>
	<rect x="185.9" y="95.4" width="15" height="81.2"/>
	<ellipse transform="matrix(0.9732 -0.2298 0.2298 0.9732 -9.4646 46.1459)" cx="193.4" cy="63.7" rx="10.2" ry="10.2"/>
</g>
<path d="M144.4,94c-8.7,2.2-14.1,7.2-17.3,11.6V95.4h-15v81.2h15v-40.6c0.4-11.9,3.8-16.6,6.7-20c2.3-2.7,5.8-5,7.4-6
	c0.8-0.4,1.7-0.8,2.5-1.1c12.1-3.8,21.4,1.7,21.4,1.7l8.1-13.8C173.2,96.7,161.6,89.6,144.4,94z"/>
</svg>
